<svg xmlns="http://www.w3.org/2000/svg" width="1920" height="962" viewBox="0 0 1920 962">
  <g id="Group_410" data-name="Group 410" transform="translate(-308 -1412)">
    <path id="Path_126" data-name="Path 126" d="M1487.5-4673.708l-21.644-12.31c-37.8-21.5-83.428-37.593-133.386-47.045h0c-76.589-14.492-158.269-16.854-236.885-6.851L-59.857-4592.9c-91.823,11.683-170.713,46.144-216.568,94.6l-140.9,148.9c-8.312,8.784-12.676,18.682-12.676,28.746h0V-3784H1487.5Z" transform="translate(738 6157.999)" fill="#d5f8ff"/>
    <path id="Path_123" data-name="Path 123" d="M-430-4673.708l21.644-12.31c37.8-21.5,83.428-37.593,133.386-47.045h0c76.589-14.492,158.269-16.854,236.885-6.851L1117.357-4592.9c91.823,11.683,170.714,46.144,216.568,94.6l140.9,148.9c8.312,8.784,12.677,18.682,12.677,28.746h0V-3784H-430Z" transform="translate(740.5 6157.999)" fill="#f4f9fa"/>
  </g>
</svg>
