<svg xmlns="http://www.w3.org/2000/svg" viewBox="0 0 119 111"><defs><style>.cls-1{fill:#0ca517;}.cls-2{fill:#fff;}.cls-3{fill:#20b1e4;}.cls-4{fill:#abbfc7;}</style></defs><g id="Layer_2" data-name="Layer 2"><g id="Layer_1-2" data-name="Layer 1"><circle class="cls-1" cx="91.5" cy="83.5" r="27.5"/><path class="cls-2" d="M103.21,73.23l4.14,4.15L88,96.77l-12-12,4.15-4.14L88,88.48Z"/><path class="cls-3" d="M76,25H28c-2.21,0-4,1.34-4,3s1.79,3,4,3H76c2.21,0,4-1.34,4-3s-1.79-3-4-3Z"/><path class="cls-3" d="M76,47H28c-2.21,0-4,1.34-4,3s1.79,3,4,3H76c2.21,0,4-1.34,4-3s-1.79-3-4-3Z"/><path class="cls-3" d="M27.77,69H62c-1.54,1.84-2,3-3,6H27.77C25.69,75,24,73.66,24,72S25.69,69,27.77,69Z"/><path class="cls-4" d="M104,24V46.94c-2.55-1.17-5.23-1-8-1.47V24A16,16,0,0,0,80,8H24A16,16,0,0,0,8,24V80A16,16,0,0,0,24,96H51.5a32.48,32.48,0,0,0,4.79,8H24A24,24,0,0,1,0,80V24A24,24,0,0,1,24,0H80A24,24,0,0,1,104,24Z"/></g></g></svg>