<svg xmlns="http://www.w3.org/2000/svg" width="34" height="26" viewBox="0 0 34 26">
  <g id="Group_1655" data-name="Group 1655" transform="translate(-481 -685)">
    <path id="Path_813" data-name="Path 813" d="M-1379.22,67.383c-2.06,0-4.12.006-6.18,0a3.238,3.238,0,0,1-3.489-3.5c0-5.564-.005-10.347,0-15.911a3.261,3.261,0,0,1,3.469-3.477q5.2-.011,10.4.012a3.188,3.188,0,0,1,3.347,3.335,2.23,2.23,0,0,1,0,.346,1,1,0,0,0,.616,1.137A2.939,2.939,0,0,1-1369.52,52c.02,4.332.025,7.883,0,12.215a3.207,3.207,0,0,1-3.35,3.172c-2.118.016-4.235,0-6.353,0Zm-7.5-16.55a3.019,3.019,0,0,0-.048.384c0,4.541-.006,8.3,0,12.842,0,.831.419,1.209,1.275,1.21q6.292.005,12.583,0c.877,0,1.282-.386,1.284-1.263.009-4.195.008-7.609,0-11.8,0-.884-.4-1.278-1.271-1.285-1.558-.012-3.117.011-4.675-.013-.472-.007-.591.177-.586.612.018,1.5.012,3,0,4.5-.006,1.254-.774,1.743-1.85,1.076a2.253,2.253,0,0,0-2.681-.02c-1.135.708-1.874.214-1.879-1.136,0-1.5,0-3,0-4.5,0-.254.021-.513-.359-.523C-1385.514,50.9-1386.1,50.862-1386.724,50.833Zm6.767-2.025v0c1.867,0,3.735.005,5.6-.009.183,0,.47-.074.53-.2a1.379,1.379,0,0,0-1.26-1.991c-2.5-.006-5.006,0-7.509,0-1.02,0-2.041-.016-3.061.007a1.077,1.077,0,0,0-1.027,1.527,1.143,1.143,0,0,0,1.179.663Q-1382.729,48.8-1379.957,48.807Zm-.306,5.837c0-1.271.007-2.356-.013-3.441a.4.4,0,0,0-.285-.269c-.606-.026-1.214-.013-1.842-.013V54.6A1.719,1.719,0,0,1-1380.262,54.645Z" transform="translate(1876.893 641.775)" fill="#fff"/>
    <rect id="Rectangle_603" data-name="Rectangle 603" width="34" height="26" transform="translate(481 685)" fill="none"/>
  </g>
</svg>
