<svg id="Layer_1" data-name="Layer 1" xmlns="http://www.w3.org/2000/svg" width="34" height="26" viewBox="0 0 34 26"><defs><style>.cls-1{fill:#fff;}.cls-2{fill:none;}</style></defs><g id="Group_1655" data-name="Group 1655"><path id="Path_813" data-name="Path 813" class="cls-1" d="M16.67,24.16H10.49a3.24,3.24,0,0,1-3.49-3,4.68,4.68,0,0,1,0-.53V4.75a3.27,3.27,0,0,1,3-3.48,3.23,3.23,0,0,1,.44,0c3.47,0,6.94,0,10.4,0a3.19,3.19,0,0,1,3.35,3v.32a1.93,1.93,0,0,1,0,.34,1,1,0,0,0,.62,1.14,2.93,2.93,0,0,1,1.53,2.68c0,4.33,0,7.88,0,12.21a3.21,3.21,0,0,1-3.24,3.18H23c-2.12,0-4.23,0-6.35,0ZM9.17,7.61c0,.12,0,.25-.05.38V20.83c0,.84.42,1.21,1.28,1.21q6.28,0,12.58,0c.88,0,1.29-.38,1.29-1.26,0-4.19,0-7.61,0-11.8,0-.88-.4-1.28-1.27-1.28-1.56,0-3.12,0-4.68,0-.47,0-.59.18-.59.62q0,2.25,0,4.5c0,1.25-.77,1.74-1.84,1.07a2.28,2.28,0,0,0-2.69,0c-1.13.71-1.87.22-1.88-1.13V8.22c0-.26,0-.52-.35-.53-.59,0-1.18-.05-1.8-.08Zm6.77-2h0c1.87,0,3.73,0,5.6,0,.18,0,.47-.07.53-.2a1.37,1.37,0,0,0-.62-1.84,1.43,1.43,0,0,0-.64-.15H13.3c-1,0-2,0-3.06,0a1.08,1.08,0,0,0-1.13,1,1.24,1.24,0,0,0,.1.5,1.16,1.16,0,0,0,1.18.66Zm-.31,5.84c0-1.27,0-2.36,0-3.44a.4.4,0,0,0-.28-.27c-.61,0-1.22,0-1.85,0v3.68a1.71,1.71,0,0,1,2.14,0Z"/><rect id="Rectangle_603" data-name="Rectangle 603" class="cls-2" width="34" height="26"/></g></svg>