<svg id="_002-24-hours-phone-service" data-name="002-24-hours-phone-service" xmlns="http://www.w3.org/2000/svg" width="26" height="24.337" viewBox="0 0 26 24.337">
  <path id="Path_88" data-name="Path 88" d="M14.414,19.573a11.578,11.578,0,0,0-9.481,4.939A5.667,5.667,0,0,1,6.2,25.683a9.886,9.886,0,0,1,7.024-4.336l1.189,2.013L15.6,21.347a9.9,9.9,0,0,1,8.622,8.621l-2.013,1.19,2.013,1.19A9.89,9.89,0,0,1,19.694,39.5a3.008,3.008,0,0,1,.259,1.092,2.894,2.894,0,0,1-.073.777,11.583,11.583,0,0,0-5.465-21.8Zm2.956,19.08c-2.671-2.146-3.418-1.091-4.629.12-.846.846-2.987-.921-4.836-2.77s-3.616-3.99-2.77-4.836c1.212-1.212,2.267-1.959.12-4.629s-3.577-.62-4.751.554C-.85,28.448.434,33.5,5.423,38.487s10.039,6.273,11.393,4.918C17.99,42.231,20.042,40.8,17.371,38.653ZM9.237,32.972c0-2.374,2.779-2.8,2.779-3.723a.635.635,0,0,0-.693-.638c-.612,0-.953.683-.953.683L9.2,28.511a2.48,2.48,0,0,1,2.266-1.385,2.006,2.006,0,0,1,2.194,1.97c0,2.006-2.59,2.392-2.635,3.22h2.734v1.349H9.309A3.929,3.929,0,0,1,9.237,32.972Zm5.182-1.816L16.9,27.234h1.925V30.8h.764v1.3h-.764v1.556H17.269V32.108H14.418v-.953Zm2.851-.351V29.365a5.742,5.742,0,0,1,.054-.72h-.018a3.413,3.413,0,0,1-.315.666l-.971,1.475V30.8Z" transform="translate(0 -19.573)" fill="#fff"/>
</svg>
