<svg xmlns="http://www.w3.org/2000/svg" width="26" height="26" viewBox="0 0 26 26">
  <g id="Group_359" data-name="Group 359" transform="translate(-416 -1343)">
    <g id="_004-global" data-name="004-global" transform="translate(417 1344)">
      <g id="Group_357" data-name="Group 357" transform="translate(0 0)">
        <path id="Path_93" data-name="Path 93" d="M21.692,5.047a.2.2,0,0,0,0-.023c-.03-.043-.067-.079-.1-.121q-.334-.456-.708-.877c-.068-.077-.137-.153-.206-.228q-.385-.412-.807-.786c-.052-.046-.1-.094-.153-.139a11.959,11.959,0,0,0-2.265-1.529c-.032-.017-.067-.032-.1-.049A11.866,11.866,0,0,0,16.244.8C16.159.771,16.081.741,16,.716Q15.5.534,14.976.4c-.1-.027-.2-.055-.309-.079-.341-.079-.683-.14-1.032-.189-.106-.015-.21-.036-.317-.049a11.218,11.218,0,0,0-2.707,0c-.107.013-.211.033-.317.049C9.947.178,9.6.239,9.264.318,9.16.342,9.058.37,8.955.4Q8.432.534,7.931.716C7.846.745,7.768.774,7.687.8A11.859,11.859,0,0,0,6.578,1.3c-.033.017-.067.032-.1.049A11.962,11.962,0,0,0,4.206,2.873c-.052.045-.1.093-.153.139a11.1,11.1,0,0,0-.807.786c-.07.075-.138.151-.206.228q-.375.421-.708.877c-.031.042-.067.078-.1.121a.194.194,0,0,0-.01.023,11.868,11.868,0,0,0,0,13.787.186.186,0,0,0,.01.023c.03.043.067.079.1.121q.334.456.708.877c.068.077.137.153.206.228q.386.412.807.786c.052.046.1.094.153.139a11.959,11.959,0,0,0,2.265,1.529c.032.017.067.032.1.049a11.866,11.866,0,0,0,1.109.494c.085.031.163.06.244.085q.5.182,1.024.318c.1.027.2.055.309.079.341.079.683.14,1.032.189.106.015.21.036.317.049a11.218,11.218,0,0,0,2.707,0c.107-.013.211-.033.317-.049.349-.049.694-.11,1.032-.189.1-.024.206-.052.309-.079q.524-.136,1.024-.318c.085-.029.163-.058.244-.085a11.86,11.86,0,0,0,1.109-.494c.033-.017.067-.032.1-.049a11.961,11.961,0,0,0,2.265-1.529c.052-.045.1-.093.153-.139a10.864,10.864,0,0,0,.807-.786c.07-.075.138-.151.206-.228q.375-.422.708-.877c.031-.042.067-.078.1-.121a.193.193,0,0,0,.01-.023A11.868,11.868,0,0,0,21.692,5.047Zm-.974,1.614a10.153,10.153,0,0,1,1.439,4.426H17.047a15.922,15.922,0,0,0-.478-3.011A15.333,15.333,0,0,0,20.719,6.662ZM14.133,1.937c.048.011.094.026.142.038a9.183,9.183,0,0,1,.9.256c.045.015.09.033.134.049q.44.154.866.341l.148.072q.407.194.8.419l.171.1q.369.225.717.482c.06.043.119.085.178.133a7.786,7.786,0,0,1,.654.549c.055.049.111.1.165.149.218.207.427.427.628.654.026.03.053.057.078.085a14.313,14.313,0,0,1-3.639,1.169,21.7,21.7,0,0,0-2.3-4.558C13.9,1.9,14.016,1.911,14.133,1.937ZM8.58,11.088a14.237,14.237,0,0,1,.469-2.73,24.451,24.451,0,0,0,2.913.171,24.507,24.507,0,0,0,2.916-.175,14.211,14.211,0,0,1,.467,2.735Zm6.765,1.707a14.237,14.237,0,0,1-.469,2.73,24.973,24.973,0,0,0-5.829,0,14.215,14.215,0,0,1-.467-2.73ZM11.962,2.258A20.609,20.609,0,0,1,14.34,6.695a22.584,22.584,0,0,1-2.378.126,22.755,22.755,0,0,1-2.376-.127A20.771,20.771,0,0,1,11.962,2.258ZM4.291,5.181c.2-.227.41-.446.628-.654.054-.051.11-.1.165-.149q.316-.288.654-.549c.059-.045.119-.085.178-.133q.348-.256.717-.482l.171-.1q.388-.227.8-.419l.148-.072q.425-.192.866-.341c.044-.016.085-.034.134-.049.3-.1.6-.181.9-.256.048-.011.094-.026.142-.037.117-.026.238-.038.357-.059a21.7,21.7,0,0,0-2.3,4.559A14.312,14.312,0,0,1,4.213,5.268C4.239,5.238,4.266,5.211,4.291,5.181ZM3.206,6.662A15.33,15.33,0,0,0,7.355,8.076a15.922,15.922,0,0,0-.477,3.011H1.767A10.154,10.154,0,0,1,3.206,6.662Zm0,10.558a10.153,10.153,0,0,1-1.439-4.426H6.878a15.922,15.922,0,0,0,.478,3.011A15.33,15.33,0,0,0,3.206,17.22Zm6.586,4.725c-.048-.011-.094-.026-.142-.038a9.182,9.182,0,0,1-.9-.256c-.045-.015-.09-.033-.134-.049q-.44-.154-.866-.341L7.6,21.189q-.407-.194-.8-.419l-.171-.1q-.369-.225-.717-.482c-.06-.043-.119-.085-.178-.133a7.786,7.786,0,0,1-.654-.549c-.055-.049-.111-.1-.165-.149-.218-.207-.427-.427-.628-.654-.026-.03-.053-.057-.078-.085a14.313,14.313,0,0,1,3.639-1.169A21.7,21.7,0,0,0,10.148,22C10.03,21.982,9.909,21.97,9.792,21.945Zm2.171-.321a20.609,20.609,0,0,1-2.378-4.437,22.214,22.214,0,0,1,4.754,0h0A20.767,20.767,0,0,1,11.962,21.624ZM19.633,18.7c-.2.227-.41.446-.628.654-.054.051-.11.1-.165.149q-.316.288-.654.549c-.059.045-.119.09-.178.133q-.348.256-.717.482l-.171.1q-.387.226-.8.419l-.148.072q-.425.192-.866.341c-.044.016-.085.034-.134.049-.3.1-.6.181-.9.256-.048.011-.094.026-.142.037-.117.026-.238.038-.357.059a21.694,21.694,0,0,0,2.3-4.558,14.312,14.312,0,0,1,3.639,1.169C19.686,18.643,19.659,18.671,19.633,18.7Zm1.085-1.48a15.33,15.33,0,0,0-4.149-1.415,15.922,15.922,0,0,0,.477-3.011h5.111A10.155,10.155,0,0,1,20.719,17.22Z" transform="translate(-0.016 0.002)" fill="#fff"/>
      </g>
    </g>
    <rect id="Rectangle_75" data-name="Rectangle 75" width="26" height="26" transform="translate(416 1343)" fill="none"/>
  </g>
</svg>
