<svg id="_003-discount" data-name="003-discount" xmlns="http://www.w3.org/2000/svg" width="23.134" height="24.11" viewBox="0 0 23.134 24.11">
  <g id="Group_350" data-name="Group 350" transform="translate(0 0)">
    <g id="Group_349" data-name="Group 349">
      <path id="Path_89" data-name="Path 89" d="M32.378,12.365a.707.707,0,0,1,0-.625l.9-1.84a2.093,2.093,0,0,0-.9-2.779l-1.809-.96a.707.707,0,0,1-.367-.505L29.844,3.64A2.093,2.093,0,0,0,27.48,1.922l-2.027.287a.707.707,0,0,1-.594-.193L23.387.593a2.093,2.093,0,0,0-2.922,0L18.993,2.016a.707.707,0,0,1-.594.193l-2.027-.287A2.093,2.093,0,0,0,14.008,3.64l-.354,2.017a.707.707,0,0,1-.367.505l-1.809.96a2.093,2.093,0,0,0-.9,2.779l.9,1.839a.707.707,0,0,1,0,.625l-.9,1.839a2.093,2.093,0,0,0,.9,2.779l1.809.96a.707.707,0,0,1,.367.505l.354,2.017A2.092,2.092,0,0,0,16.071,22.2a2.15,2.15,0,0,0,.3-.021L18.4,21.9a.706.706,0,0,1,.594.193l1.472,1.424a2.093,2.093,0,0,0,2.922,0l1.472-1.424a.707.707,0,0,1,.594-.193l2.027.287a2.093,2.093,0,0,0,2.364-1.718l.354-2.017a.707.707,0,0,1,.367-.505l1.809-.96a2.093,2.093,0,0,0,.9-2.779Zm-.656,3.39-1.809.96a2.088,2.088,0,0,0-1.085,1.493l-.354,2.017a.708.708,0,0,1-.8.581l-2.027-.287a2.088,2.088,0,0,0-1.756.57L22.42,22.514a.708.708,0,0,1-.989,0L19.96,21.09A2.086,2.086,0,0,0,18.5,20.5a2.135,2.135,0,0,0-.3.021l-2.027.287a.708.708,0,0,1-.8-.581l-.354-2.017a2.088,2.088,0,0,0-1.085-1.493l-1.809-.96a.708.708,0,0,1-.306-.94l.9-1.84a2.088,2.088,0,0,0,0-1.846l-.9-1.84a.708.708,0,0,1,.306-.94l1.809-.96A2.088,2.088,0,0,0,15.024,5.9l.354-2.017a.708.708,0,0,1,.8-.581l2.027.287a2.088,2.088,0,0,0,1.756-.57l1.472-1.424a.708.708,0,0,1,.989,0l1.472,1.424a2.088,2.088,0,0,0,1.756.57L27.675,3.3a.708.708,0,0,1,.8.581L28.828,5.9a2.088,2.088,0,0,0,1.085,1.493l1.809.96a.708.708,0,0,1,.306.94l-.9,1.839a2.088,2.088,0,0,0,0,1.846l.9,1.839A.708.708,0,0,1,31.722,15.756Z" transform="translate(-10.359 0.002)" fill="#fff"/>
    </g>
  </g>
  <g id="Group_352" data-name="Group 352" transform="translate(6.283 6.771)">
    <g id="Group_351" data-name="Group 351">
      <path id="Path_90" data-name="Path 90" d="M154.156,144a.7.7,0,0,0-.983,0L144,153.172a.7.7,0,1,0,.983.983l9.177-9.177A.7.7,0,0,0,154.156,144Z" transform="translate(-143.792 -143.792)" fill="#fff"/>
    </g>
  </g>
  <g id="Group_354" data-name="Group 354" transform="translate(6.237 5.797)">
    <g id="Group_353" data-name="Group 353">
      <path id="Path_91" data-name="Path 91" d="M145.351,123.116a2.549,2.549,0,1,0,2.549,2.549A2.552,2.552,0,0,0,145.351,123.116Zm0,3.708a1.159,1.159,0,1,1,1.159-1.159A1.16,1.16,0,0,1,145.351,126.824Z" transform="translate(-142.802 -123.116)" fill="#fff"/>
    </g>
  </g>
  <g id="Group_356" data-name="Group 356" transform="translate(11.799 13.214)">
    <g id="Group_355" data-name="Group 355">
      <path id="Path_92" data-name="Path 92" d="M263.471,280.61a2.549,2.549,0,1,0,2.549,2.549A2.552,2.552,0,0,0,263.471,280.61Zm0,3.708a1.159,1.159,0,1,1,1.159-1.159A1.16,1.16,0,0,1,263.471,284.318Z" transform="translate(-260.922 -280.61)" fill="#fff"/>
    </g>
  </g>
</svg>
