<svg xmlns="http://www.w3.org/2000/svg" width="24.284" height="24.284" viewBox="0 0 24.284 24.284">
  <path id="_006-image" data-name="006-image" d="M21.438,0H2.846A2.849,2.849,0,0,0,0,2.846V21.438a2.849,2.849,0,0,0,2.846,2.846H21.438a2.849,2.849,0,0,0,2.846-2.846V2.846A2.849,2.849,0,0,0,21.438,0ZM2.846,1.9H21.438a.95.95,0,0,1,.949.949V16.777l-3.229-3.229a2.849,2.849,0,0,0-4.025,0l-1.047,1.047-2.944-2.944a2.849,2.849,0,0,0-4.025,0L1.9,16.871V2.846A.95.95,0,0,1,2.846,1.9Zm18.592,20.49H2.846a.95.95,0,0,1-.949-.949V19.554l6.562-6.562a.95.95,0,0,1,1.341,0l4.286,4.286,2.388-2.388a.95.95,0,0,1,1.341,0l4.57,4.57v1.979A.95.95,0,0,1,21.438,22.387Zm-6.071-12.9A2.846,2.846,0,1,0,12.521,6.64,2.849,2.849,0,0,0,15.367,9.486Zm0-3.794a.949.949,0,1,1-.949.949A.95.95,0,0,1,15.367,5.692Z" fill="#fff"/>
</svg>
