<svg xmlns="http://www.w3.org/2000/svg" width="24" height="24" viewBox="0 0 24 24">
  <g id="Group_193" data-name="Group 193" transform="translate(0.041 0.019)">
    <path id="Path_16" data-name="Path 16" d="M53.382,22.866h-3.95V21.43a5.263,5.263,0,1,0-10.525,0v1.435h-4.1a.937.937,0,0,0-.933.94V35.555a3.882,3.882,0,0,0,3.863,3.891H50.452a3.882,3.882,0,0,0,3.863-3.891V23.805A.937.937,0,0,0,53.382,22.866ZM40.4,21.43a3.77,3.77,0,1,1,7.539,0v1.435H40.4ZM52.76,35.555a2.319,2.319,0,0,1-2.308,2.325H37.737a2.319,2.319,0,0,1-2.308-2.325V24.432h3.477v1.6a.749.749,0,0,0,.746.752.741.741,0,0,0,.527-.221.752.752,0,0,0,.219-.531v-1.6h7.539v1.6a.746.746,0,1,0,1.493,0v-1.6H52.76Z" transform="translate(-31.908 -16.002)" fill="#fff"/>
    <rect id="Rectangle_76" data-name="Rectangle 76" width="24" height="24" transform="translate(-0.041 -0.019)" fill="none"/>
  </g>
</svg>
