<svg xmlns="http://www.w3.org/2000/svg" width="26" height="26" viewBox="0 0 26 26">
  <g id="Group_360" data-name="Group 360" transform="translate(-416 -1501)">
    <path id="_005-shield" data-name="005-shield" d="M17.742,3.984C13.4,3.984,10.071.366,10.015.3A.92.92,0,0,0,8.647.3C8.614.34,5.279,3.984.92,3.984A.919.919,0,0,0,0,4.9c0,8.079,1.629,15.069,8.936,18.54a.92.92,0,0,0,.789,0c7.323-3.479,8.936-10.493,8.936-18.54a.919.919,0,0,0-.919-.919Zm-8.411,17.6c-5.988-3.063-7.394-9.03-7.486-15.809A13.469,13.469,0,0,0,9.331,2.21a13.469,13.469,0,0,0,7.486,3.569C16.725,12.56,15.317,18.525,9.331,21.588Zm-.944-8.927L12.128,8.92a.919.919,0,0,1,1.3,1.3L9.037,14.611a.92.92,0,0,1-1.3,0l-2.5-2.5a.919.919,0,0,1,1.3-1.3Zm0,0" transform="translate(420 1502)" fill="#fff"/>
    <rect id="Rectangle_73" data-name="Rectangle 73" width="26" height="26" transform="translate(416 1501)" fill="none"/>
  </g>
</svg>
