<svg xmlns="http://www.w3.org/2000/svg" width="24" height="24" viewBox="0 0 24 24">
  <g id="Group_192" data-name="Group 192" transform="translate(-0.25 0.472)">
    <g id="loupe" transform="translate(1.221 1.191)">
      <path id="Union_1" data-name="Union 1" d="M20.644,21.817l-5.577-5.578A9.272,9.272,0,0,1,0,9.137a9.252,9.252,0,0,1,18.5,0,9.022,9.022,0,0,1-2.029,5.7l5.572,5.576a.991.991,0,1,1-1.4,1.4ZM1.71,9.137a7.544,7.544,0,0,0,15.086,0,7.544,7.544,0,0,0-15.086,0Z" transform="translate(0 0)" fill="#fff"/>
    </g>
    <rect id="Rectangle_75" data-name="Rectangle 75" width="24" height="24" transform="translate(0.25 -0.472)" fill="none"/>
  </g>
</svg>
