<svg xmlns="http://www.w3.org/2000/svg" width="24" height="24" viewBox="0 0 24 24">
  <g id="Group_1677" data-name="Group 1677" transform="translate(-1459 -53.9)">
    <g id="Group_1674" data-name="Group 1674" transform="translate(1461.989 55.473)">
      <path id="Path_817" data-name="Path 817" d="M-2432.7,801.155a17.02,17.02,0,0,1-6.856-1.262,7.36,7.36,0,0,1-1.474-.923,2.505,2.505,0,0,1-.983-2.139,8.882,8.882,0,0,1,2.455-5.947c.478-.507.93-.566,1.313-.21s.353.811-.125,1.322a7.468,7.468,0,0,0-1.962,4.2c-.142,1.042.031,1.556,1,1.977a14.649,14.649,0,0,0,3.08,1.009,15.651,15.651,0,0,0,8.447-.517c2.419-.89,2.384-1.349,1.835-3.637a7.134,7.134,0,0,0-1.729-3.064,1.3,1.3,0,0,1-.364-.853.924.924,0,0,1,.565-.632,1.022,1.022,0,0,1,.819.242,7.575,7.575,0,0,1,2.142,3.415,15.473,15.473,0,0,1,.477,2.566,2.549,2.549,0,0,1-1.134,2.412,9.939,9.939,0,0,1-4.7,1.757C-2430.948,801.036-2432.017,801.089-2432.7,801.155Z" transform="translate(2442.017 -779.896)" fill="#fff"/>
      <path id="Path_818" data-name="Path 818" d="M-2408.281,711.426a5.727,5.727,0,0,1-5.723-5.71,5.732,5.732,0,0,1,5.714-5.723,5.717,5.717,0,0,1,5.717,5.713A5.711,5.711,0,0,1-2408.281,711.426Zm4.073-5.71a4.087,4.087,0,0,0-4.072-4.084,4.087,4.087,0,0,0-4.085,4.073,4.089,4.089,0,0,0,4.073,4.084A4.078,4.078,0,0,0-2404.208,705.716Z" transform="translate(2417.272 -699.993)" fill="#fff"/>
    </g>
    <rect id="Rectangle_610" data-name="Rectangle 610" width="24" height="24" transform="translate(1459 53.9)" fill="none"/>
  </g>
</svg>
