<svg xmlns="http://www.w3.org/2000/svg" viewBox="0 0 125.37 118.24"><defs><style>.cls-1{fill:#90cf75;}.cls-2{fill:#dd7212;}.cls-3{fill:#dba223;}.cls-4{fill:#4d8e23;}.cls-5{fill:#20b1e4;}.cls-6{fill:#abbfc7;}</style></defs><g id="Layer_2" data-name="Layer 2"><g id="Layer_1-2" data-name="Layer 1"><path class="cls-1" d="M98.9,56.43a2.94,2.94,0,0,1-1,2.25l-3.58,3.09-2.46,2.11a2.05,2.05,0,0,1-2.16.3,2,2,0,0,1-1.17-1.83V61.5A21.59,21.59,0,0,0,69.08,78.74L65.7,74.81a3.44,3.44,0,0,0-5.24,0l-2.21,2.56A32.81,32.81,0,0,1,88.5,50.56v-.05a2,2,0,0,1,1.17-1.82,2,2,0,0,1,2.16.29l2,1.73,4,3.48A2.93,2.93,0,0,1,98.9,56.43Z"/><path class="cls-2" d="M81.81,112.43a3.43,3.43,0,0,1-1.21-2.62,3.46,3.46,0,0,1,1.21-2.63l3.89-3.34A21.15,21.15,0,0,1,69.21,85a2.51,2.51,0,0,0,1.69-4.14l-1.82-2.11L65.7,74.81a3.44,3.44,0,0,0-5.24,0l-2.21,2.56-3,3.51a2.54,2.54,0,0,0-.34,2.68A2.49,2.49,0,0,0,57.16,85h.11a33.11,33.11,0,0,0,28.65,31Z"/><path class="cls-3" d="M119.69,90.87a3,3,0,0,1-4.49,0l-3.87-4.49A21.34,21.34,0,0,1,92,104.3v-.41a2.51,2.51,0,0,0-4.15-1.9l-2.15,1.85-3.89,3.34a3.46,3.46,0,0,0-1.21,2.63,3.43,3.43,0,0,0,1.21,2.62L85.92,116l1.93,1.67a2.53,2.53,0,0,0,2.69.37,2.47,2.47,0,0,0,1.27-1.35,1.73,1.73,0,0,0,.14-.42l.37,0a33.11,33.11,0,0,0,31-29.28l0-.27Z"/><path class="cls-4" d="M125.19,82.67a2,2,0,0,0-1.3-1.1,1.88,1.88,0,0,0-.53-.07H123A32.43,32.43,0,0,0,93.83,50.71l4,3.48a3,3,0,0,1,0,4.49l-3.58,3.09A21.9,21.9,0,0,1,112,81.5h-.5A2,2,0,0,0,110,84.83l1.34,1.55,3.87,4.49a3,3,0,0,0,4.49,0l3.61-4.2,1.59-1.85A2,2,0,0,0,125.19,82.67Z"/><path class="cls-5" d="M76,25H28c-2.21,0-4,1.34-4,3s1.79,3,4,3H76c2.21,0,4-1.34,4-3s-1.79-3-4-3Z"/><path class="cls-5" d="M70.43,47H27.57A3.32,3.32,0,0,0,24,50a3.32,3.32,0,0,0,3.57,3H70.43A3.32,3.32,0,0,0,74,50a3.32,3.32,0,0,0-3.57-3Z"/><path class="cls-5" d="M27.28,69H57c-1.34,1.84-1.74,3-2.61,6H27.28a3,3,0,1,1,0-6Z"/><path class="cls-6" d="M104,24V46.94c-2.55-1.17-5.23-1-8-1.47V24A16,16,0,0,0,80,8H24A16,16,0,0,0,8,24V80A16,16,0,0,0,24,96H51.5a32.48,32.48,0,0,0,4.79,8H24A24,24,0,0,1,0,80V24A24,24,0,0,1,24,0H80A24,24,0,0,1,104,24Z"/></g></g></svg>