<svg id="Group_172" data-name="Group 172" xmlns="http://www.w3.org/2000/svg" width="30" height="28" viewBox="0 0 30 28">
  <rect id="Rectangle_49" data-name="Rectangle 49" width="30" height="28" rx="4" fill="#090909"/>
  <g id="Group_138" data-name="Group 138" transform="translate(8 7.833)">
    <g id="_004-instagram" data-name="004-instagram" transform="translate(0.232)">
      <path id="Path_13" data-name="Path 13" d="M13.462,3.836a4.768,4.768,0,0,0-.3-1.583A3.343,3.343,0,0,0,11.249.344a4.78,4.78,0,0,0-1.583-.3C8.968.008,8.746,0,6.974,0S4.981.008,4.285.038A4.769,4.769,0,0,0,2.7.342,3.184,3.184,0,0,0,1.545,1.1,3.213,3.213,0,0,0,.793,2.251a4.781,4.781,0,0,0-.3,1.583c-.033.7-.041.92-.041,2.692S.456,8.519.487,9.215A4.768,4.768,0,0,0,.79,10.8,3.342,3.342,0,0,0,2.7,12.707a4.781,4.781,0,0,0,1.583.3c.7.031.918.038,2.689.038s1.993-.008,2.689-.038a4.767,4.767,0,0,0,1.583-.3A3.338,3.338,0,0,0,13.153,10.8a4.784,4.784,0,0,0,.3-1.583c.031-.7.038-.918.038-2.689s0-1.993-.033-2.689ZM12.287,9.164a3.577,3.577,0,0,1-.224,1.211,2.165,2.165,0,0,1-1.239,1.239,3.589,3.589,0,0,1-1.211.224c-.688.031-.895.038-2.636.038s-1.95-.008-2.636-.038a3.575,3.575,0,0,1-1.211-.224,2.008,2.008,0,0,1-.749-.487,2.029,2.029,0,0,1-.487-.749A3.59,3.59,0,0,1,1.67,9.167c-.031-.688-.038-.895-.038-2.636s.008-1.95.038-2.636a3.575,3.575,0,0,1,.224-1.211,1.983,1.983,0,0,1,.49-.749,2.026,2.026,0,0,1,.749-.487,3.592,3.592,0,0,1,1.211-.224c.688-.031.895-.038,2.636-.038s1.95.008,2.636.038a3.577,3.577,0,0,1,1.211.224,2.006,2.006,0,0,1,.749.487,2.028,2.028,0,0,1,.487.749A3.591,3.591,0,0,1,12.287,3.9c.031.688.038.895.038,2.636s-.008,1.945-.038,2.633Zm0,0" transform="translate(-0.449 0)" fill="#fff"/>
      <path id="Path_14" data-name="Path 14" d="M128.3,124.5a3.352,3.352,0,1,0,3.352,3.352A3.353,3.353,0,0,0,128.3,124.5Zm0,5.526a2.174,2.174,0,1,1,2.174-2.174,2.175,2.175,0,0,1-2.174,2.174Zm0,0" transform="translate(-121.775 -121.326)" fill="#fff"/>
      <path id="Path_15" data-name="Path 15" d="M364.015,89.384a.783.783,0,1,1-.783-.783A.783.783,0,0,1,364.015,89.384Zm0,0" transform="translate(-353.222 -86.343)" fill="#fff"/>
    </g>
    <rect id="Rectangle_66" data-name="Rectangle 66" width="14" height="13" transform="translate(0 0.167)" fill="none"/>
  </g>
</svg>
