<svg id="Group_173" data-name="Group 173" xmlns="http://www.w3.org/2000/svg" width="30" height="28" viewBox="0 0 30 28">
  <rect id="Rectangle_50" data-name="Rectangle 50" width="30" height="28" rx="4" fill="#090909"/>
  <g id="Group_127" data-name="Group 127" transform="translate(9 8)">
    <g id="Group_139" data-name="Group 139">
      <g id="_001-linkedin" data-name="001-linkedin" transform="translate(0.267 0.135)">
        <path id="Path_9" data-name="Path 9" d="M15.972,15.5h0V11.253c0-2.078-.447-3.679-2.877-3.679a2.522,2.522,0,0,0-2.272,1.248h-.034V7.768h-2.3V15.5h2.4V11.672c0-1.008.191-1.983,1.44-1.983,1.23,0,1.248,1.15,1.248,2.048V15.5Z" transform="translate(-4.392 -3.919)" fill="#fff"/>
        <path id="Path_10" data-name="Path 10" d="M.4,7.977H2.8V15.71H.4Z" transform="translate(-0.205 -4.127)" fill="#fff"/>
        <path id="Path_11" data-name="Path 11" d="M1.391,0A1.4,1.4,0,1,0,2.782,1.391,1.391,1.391,0,0,0,1.391,0Z" fill="#fff"/>
      </g>
      <rect id="Rectangle_69" data-name="Rectangle 69" width="13" height="12" fill="none"/>
    </g>
  </g>
</svg>
