<svg xmlns="http://www.w3.org/2000/svg" viewBox="0 0 121 114"><defs><style>.cls-1{fill:#20b1e4;}.cls-2{fill:#abbfc7;}.cls-3{fill:#8ea6ad;}.cls-4{fill:#fff;}</style></defs><g id="Layer_2" data-name="Layer 2"><g id="Layer_1-2" data-name="Layer 1"><path class="cls-1" d="M76,25H28c-2.21,0-4,1.34-4,3s1.79,3,4,3H76c2.21,0,4-1.34,4-3s-1.79-3-4-3Z"/><path class="cls-1" d="M70.43,47H27.57A3.32,3.32,0,0,0,24,50a3.32,3.32,0,0,0,3.57,3H70.43A3.32,3.32,0,0,0,74,50a3.32,3.32,0,0,0-3.57-3Z"/><path class="cls-1" d="M27.38,69H58c-1,2-2,4-2,6H27.38a3,3,0,1,1,0-6Z"/><path class="cls-2" d="M104,24V46.94c-2.55-1.17-5.23-1-8-1.47V24A16,16,0,0,0,80,8H24A16,16,0,0,0,8,24V80A16,16,0,0,0,24,96H56a15.13,15.13,0,0,0,3.29,8H24A24,24,0,0,1,0,80V24A24,24,0,0,1,24,0H80A24,24,0,0,1,104,24Z"/><path class="cls-3" d="M90.5,53A30.5,30.5,0,1,0,121,83.5,30.53,30.53,0,0,0,90.5,53Zm0,55A24.5,24.5,0,1,1,115,83.5,24.53,24.53,0,0,1,90.5,108Z"/><path class="cls-4" d="M100.63,62.3,67.46,78.88a19.62,19.62,0,0,1,.67-2.56l30-15h0A21,21,0,0,1,100.63,62.3Z"/><path class="cls-1" d="M98.18,61.3h0l-30,15a19.62,19.62,0,0,0-.67,2.56L100.63,62.3a21,21,0,0,0-2.45-1Z"/><path class="cls-4" d="M93,60.13,70.34,71.45a21.78,21.78,0,0,1,2.59-3.53l15.68-7.84c.62,0,1.25-.08,1.89-.08A22.44,22.44,0,0,1,93,60.13Z"/><path class="cls-1" d="M90.5,60c-.64,0-1.27,0-1.89.08L72.93,67.92a21.78,21.78,0,0,0-2.59,3.53L93,60.13A22.44,22.44,0,0,0,90.5,60Z"/><path class="cls-4" d="M109.59,69.82,68.09,90.57c-.21-.64-.38-1.3-.53-2l40.77-20.38A19.25,19.25,0,0,1,109.59,69.82Z"/><path class="cls-1" d="M108.33,68.22,67.56,88.6c.15.67.32,1.33.53,2l41.5-20.75a19.25,19.25,0,0,0-1.26-1.6Z"/><path class="cls-4" d="M113.77,80.23,73.93,100.15c-.49-.49-1-1-1.4-1.53l40.86-20.43A19.82,19.82,0,0,1,113.77,80.23Z"/><path class="cls-1" d="M113.39,78.19,72.53,98.62c.44.53.91,1,1.4,1.53l39.84-19.92a19.82,19.82,0,0,0-.38-2Z"/><path class="cls-4" d="M113.22,89.51a22.59,22.59,0,0,1-.89,2.67L84.1,106.11a20.28,20.28,0,0,1-2.65-.93Z"/><path class="cls-1" d="M113.22,89.51,81.45,105.18a20.28,20.28,0,0,0,2.65.93l28.23-13.93a22.59,22.59,0,0,0,.89-2.67Z"/><path class="cls-4" d="M105.82,65.7,67.06,85.09Q67,84.3,67,83.5c0-.21,0-.41,0-.62h0l37.06-18.53A20.39,20.39,0,0,1,105.82,65.7Z"/><path class="cls-1" d="M104.08,64.34,67,82.87h0c0,.21,0,.41,0,.62q0,.8.06,1.59L105.82,65.7a20.39,20.39,0,0,0-1.74-1.36Z"/><path class="cls-4" d="M112.21,74.51l-41.92,21c-.34-.57-.66-1.15-1-1.75l42-21C111.67,73.29,112,73.89,112.21,74.51Z"/><path class="cls-1" d="M111.37,72.7l-42,21c.29.6.61,1.18,1,1.75l41.92-21c-.26-.62-.54-1.22-.84-1.81Z"/><path class="cls-4" d="M114,83.89a21.67,21.67,0,0,1-.15,2.3h0L78.66,103.79a20.71,20.71,0,0,1-1.93-1.27Z"/><path class="cls-1" d="M114,83.89,76.73,102.52a20.71,20.71,0,0,0,1.93,1.27L113.84,86.2h0a21.67,21.67,0,0,0,.15-2.3Z"/><path class="cls-4" d="M109.48,97.33a22.73,22.73,0,0,1-3.84,4.12h0l-10.11,5h0a22.84,22.84,0,0,1-5,.54h-.6Z"/><path class="cls-1" d="M109.48,97.33,89.9,107h.6a22.84,22.84,0,0,0,5-.54h0l10.11-5h0a22.73,22.73,0,0,0,3.84-4.12Z"/></g></g></svg>