<svg xmlns="http://www.w3.org/2000/svg" viewBox="0 0 119 111"><defs><style>.cls-1{fill:#899188;}.cls-2{fill:#536851;}.cls-3{fill:#abbfc7;}.cls-4{fill:#0ca517;}.cls-5{fill:#fff;}</style></defs><g id="Layer_2" data-name="Layer 2"><g id="Layer_1-2" data-name="Layer 1"><path class="cls-1" d="M20,39.54a1.42,1.42,0,0,0-1.25,1.55L19,43.66l8.16-4.89Z"/><path class="cls-1" d="M20.89,62.07l1.23,11.79a1.39,1.39,0,0,0,.51,1,1.29,1.29,0,0,0,.55.27,1.34,1.34,0,0,0,.49,0l4.74-.52Z"/><path class="cls-1" d="M63.94,64.1a28.15,28.15,0,0,0-3.4,7l-11,1.2,14.3-8.6v0A1.28,1.28,0,0,0,63.94,64.1Z"/><path class="cls-2" d="M86.86,45,70.47,17.68a1.41,1.41,0,0,0-1.93-.48L17.33,47.93a1.41,1.41,0,0,0-.48,1.93L33.24,77.17a1.39,1.39,0,0,0,.86.65,1.45,1.45,0,0,0,1.07-.16L86.38,46.93A1.42,1.42,0,0,0,86.86,45ZM33.8,48.3,27,52.39a1.38,1.38,0,0,1-1.06.16,1.43,1.43,0,0,1-.87-.64A1.41,1.41,0,0,1,25.52,50l6.83-4.1A1.41,1.41,0,0,1,33.8,48.3ZM57,55.93a5.32,5.32,0,0,1-4.1.49,11.63,11.63,0,0,1-6.69-5.52,12.88,12.88,0,0,1-1.95-6.67A5.87,5.87,0,0,1,46.8,39a5.86,5.86,0,0,1,5.83.17,12.81,12.81,0,0,1,5,4.86C60.44,48.78,60.16,54,57,55.93Zm21.23-11L71.36,49a1.45,1.45,0,0,1-1.07.16,1.41,1.41,0,0,1-.38-2.58l6.82-4.09a1.41,1.41,0,1,1,1.45,2.41Z"/><path class="cls-3" d="M104,24V46.94c-2.55-1.17-5.23-1-8-1.47V24A16,16,0,0,0,80,8H24A16,16,0,0,0,8,24V80A16,16,0,0,0,24,96H51.5a32.48,32.48,0,0,0,4.79,8H24A24,24,0,0,1,0,80V24A24,24,0,0,1,24,0H80A24,24,0,0,1,104,24Z"/><circle class="cls-4" cx="91.5" cy="83.5" r="27.5"/><path class="cls-5" d="M103.21,73.23l4.14,4.15L88,96.77l-12-12,4.15-4.14L88,88.48Z"/></g></g></svg>