<svg id="Layer_1" data-name="Layer 1" xmlns="http://www.w3.org/2000/svg" width="34" height="26" viewBox="0 0 34 26"><defs><style>.cls-1{fill:#fff;}.cls-2{fill:none;}</style></defs><g id="Group_1656" data-name="Group 1656"><path id="Path_806" data-name="Path 806" class="cls-1" d="M33.38,12.91,29.91,6.73a1.4,1.4,0,0,0-.56-.52H19V.94H16.4V6.21H6.09a1.23,1.23,0,0,0-.56.52L2.05,12.91a4,4,0,0,0,0,4,5.24,5.24,0,0,0,4.57,2.44,5.24,5.24,0,0,0,4.57-2.44,4,4,0,0,0,0-4L9,8.84h7.4V22h-4v2.63H22.91V22H19V8.84h7.42l-2.28,4.07a3.93,3.93,0,0,0,0,4,5.5,5.5,0,0,0,9.14,0A4,4,0,0,0,33.38,12.91ZM9.19,14.07a1.57,1.57,0,0,1,0,1.67A2.84,2.84,0,0,1,6.66,17a2.87,2.87,0,0,1-2.53-1.27,1.57,1.57,0,0,1,0-1.67l2.53-4.5ZM31.3,15.74a3.16,3.16,0,0,1-4.41.64,3.23,3.23,0,0,1-.64-.64,1.6,1.6,0,0,1,0-1.66l2.53-4.51,2.54,4.51a1.6,1.6,0,0,1,0,1.66Z"/><rect id="Rectangle_601" data-name="Rectangle 601" class="cls-2" width="34" height="26"/></g></svg>