<svg xmlns="http://www.w3.org/2000/svg" width="34" height="26" viewBox="0 0 34 26">
  <g id="Group_1656" data-name="Group 1656" transform="translate(-715 -687.807)">
    <path id="Path_806" data-name="Path 806" d="M-661.367,433.969l-3.476-6.178a1.261,1.261,0,0,0-.558-.524h-10.313V422h-2.633v5.267H-688.66a1.268,1.268,0,0,0-.561.524l-3.474,6.178a3.954,3.954,0,0,0,.032,4.024,5.237,5.237,0,0,0,4.572,2.441,5.241,5.241,0,0,0,4.572-2.441,3.955,3.955,0,0,0,.032-4.024l-2.289-4.069h7.429v13.167h-4.024V445.7h10.534v-2.633h-3.876V429.9h7.429l-2.288,4.069a3.955,3.955,0,0,0,.032,4.024,5.237,5.237,0,0,0,4.572,2.441,5.241,5.241,0,0,0,4.572-2.441A3.955,3.955,0,0,0-661.367,433.969Zm-24.188,1.161a1.6,1.6,0,0,1-.011,1.667,2.872,2.872,0,0,1-2.526,1.267,2.872,2.872,0,0,1-2.525-1.267,1.6,1.6,0,0,1-.013-1.667l2.539-4.511Zm22.111,1.667a2.872,2.872,0,0,1-2.526,1.267A2.872,2.872,0,0,1-668.5,436.8a1.6,1.6,0,0,1-.013-1.667l2.539-4.511,2.536,4.511A1.6,1.6,0,0,1-663.445,436.8Z" transform="translate(1409.748 266.75)" fill="#8aa7ae"/>
    <rect id="Rectangle_601" data-name="Rectangle 601" width="34" height="26" transform="translate(715 687.807)" fill="none"/>
  </g>
</svg>
