<svg id="Layer_1" data-name="Layer 1" xmlns="http://www.w3.org/2000/svg" viewBox="0 0 34 26"><defs><style>.cls-1{fill:#fff;}.cls-2{fill:none;}</style></defs><g id="Group_1656" data-name="Group 1656"><path id="Path_806" data-name="Path 806" class="cls-1" d="M33.38,12.91,29.91,6.73a1.34,1.34,0,0,0-.56-.52H19V.94H16.4V6.21H6.09a1.28,1.28,0,0,0-.56.52L2.05,12.91a4,4,0,0,0,0,4,5.23,5.23,0,0,0,4.57,2.44,5.26,5.26,0,0,0,4.57-2.44,4,4,0,0,0,0-4L9,8.84H16.4V22h-4v2.63H22.91V22H19V8.84h7.42l-2.28,4.07a3.94,3.94,0,0,0,0,4,5.23,5.23,0,0,0,4.57,2.44,5.23,5.23,0,0,0,4.57-2.44A4,4,0,0,0,33.38,12.91ZM9.19,14.07a1.59,1.59,0,0,1,0,1.67A2.86,2.86,0,0,1,6.66,17a2.87,2.87,0,0,1-2.53-1.27,1.59,1.59,0,0,1,0-1.67L6.66,9.56ZM31.3,15.74a3.15,3.15,0,0,1-5.05,0,1.58,1.58,0,0,1,0-1.66l2.53-4.51,2.54,4.51a1.58,1.58,0,0,1,0,1.66Z"/><rect id="Rectangle_601" data-name="Rectangle 601" class="cls-2" width="34" height="26"/></g></svg>