<svg xmlns="http://www.w3.org/2000/svg" width="34" height="26" viewBox="0 0 34 26">
  <g id="Group_1657" data-name="Group 1657" transform="translate(-937 -684)">
    <g id="Group_1620" data-name="Group 1620" transform="translate(940 684)">
      <path id="Path_807" data-name="Path 807" d="M-842.57,401.085a.566.566,0,0,1-.043.3,2.041,2.041,0,0,0-.794,1.76,1.553,1.553,0,0,0,.36,1.178.751.751,0,0,0,.525.2c.029,0,.058,0,.088,0,.956-.083.911-.907.887-1.349a.317.317,0,0,1,.024-.189s.044-.041.235-.033c.454.012.909.01,1.414.007h.072l.508,0h1.306a2.063,2.063,0,0,1,.715.056,1.661,1.661,0,0,1,.183.607l.018.083a1.2,1.2,0,0,0,.76.78,1,1,0,0,0,.934-.478,2.215,2.215,0,0,0-.555-2.49c-.183-.132-.2-.2-.149-.479a12.948,12.948,0,0,1,1.449-3.487l.1-.188a5.548,5.548,0,0,0-.1-5.464,5.312,5.312,0,0,0-4.519-2.637,5.3,5.3,0,0,0-4.933,2.8,5.236,5.236,0,0,0,.09,5.512A10.794,10.794,0,0,1-842.57,401.085Zm1.788-9.681a3.565,3.565,0,0,1,1.466-.319,3.45,3.45,0,0,1,1.383.29,3.725,3.725,0,0,1,2.057,2.2,3.524,3.524,0,0,1-.271,2.874,15.762,15.762,0,0,0-1.828,4.514.412.412,0,0,1-.178.114,6.028,6.028,0,0,1-.813.018h-.023c-.108,0-.216,0-.324,0h-.267v.024c-.078,0-.157.006-.235.01a1.529,1.529,0,0,1-.823-.084c-.1-.071-.146-.357-.185-.587a2.96,2.96,0,0,0-.162-.651c-.432-1.027-.9-2.117-1.435-3.159a3.729,3.729,0,0,1-.364-3.013A3.714,3.714,0,0,1-840.782,391.4Z" transform="translate(847.277 -389.254)" fill="#8aa7ae"/>
      <path id="Path_808" data-name="Path 808" d="M-775.181,419.126a2.1,2.1,0,0,0,.154-1.663,2.058,2.058,0,0,0-1.1-1.211.786.786,0,0,1-.522-.717,2.092,2.092,0,0,0-.856-1.451,2.088,2.088,0,0,0-1.652-.313.687.687,0,0,1-.742-.246,2.149,2.149,0,0,0-1.554-.7,2.148,2.148,0,0,0-1.55.716.642.642,0,0,1-.69.239,2.15,2.15,0,0,0-1.7.32,2.161,2.161,0,0,0-.854,1.516.653.653,0,0,1-.427.6,2.19,2.19,0,0,0-1.185,1.27,2.112,2.112,0,0,0,.17,1.668.773.773,0,0,1,.006.845,2.129,2.129,0,0,0-.169,1.693,2.145,2.145,0,0,0,1.176,1.248.639.639,0,0,1,.43.593,2.156,2.156,0,0,0,.829,1.509,2.113,2.113,0,0,0,1.656.342.741.741,0,0,1,.793.263,2.116,2.116,0,0,0,1.461.693l.091,0a1.83,1.83,0,0,0,1.245-.476c.483-.444.824-.649,1.244-.463l.054.024h.059a2.065,2.065,0,0,0,2.179-1.866.687.687,0,0,1,.455-.633,2.117,2.117,0,0,0,1.152-1.238,2.089,2.089,0,0,0-.158-1.661A.824.824,0,0,1-775.181,419.126Zm-10.826-.734a.429.429,0,0,1-.092-.318c.022-.071.106-.139.241-.2a2.2,2.2,0,0,0,1.427-1.963.394.394,0,0,1,.111-.286.39.39,0,0,1,.287-.021,2.232,2.232,0,0,0,2.353-.775.332.332,0,0,1,.229-.141.423.423,0,0,1,.278.175,2.165,2.165,0,0,0,2.252.749.459.459,0,0,1,.359.022.427.427,0,0,1,.121.318,2.135,2.135,0,0,0,1.4,1.915c.139.059.225.13.249.2a.417.417,0,0,1-.087.311,2.1,2.1,0,0,0-.005,2.371.431.431,0,0,1,.091.33.455.455,0,0,1-.276.224,2.078,2.078,0,0,0-1.367,1.874c-.024.315-.141.388-.334.4a2.233,2.233,0,0,0-2.5.8.23.23,0,0,1-.161.1.4.4,0,0,1-.257-.165,2.2,2.2,0,0,0-1.7-.841,2.549,2.549,0,0,0-.657.091.328.328,0,0,1-.26-.017.346.346,0,0,1-.11-.254,2.212,2.212,0,0,0-1.442-2.013.383.383,0,0,1-.237-.193.431.431,0,0,1,.091-.324A2.088,2.088,0,0,0-786.008,418.392Z" transform="translate(803.161 -410.021)" fill="#8aa7ae"/>
      <path id="Path_809" data-name="Path 809" d="M-845.648,473.428c-3.071-.019-6.146-.019-9.142,0a3.277,3.277,0,0,0-3.361,3.306c-.016.485-.012.975-.007,1.448l0,.379c.008,1.3.594,1.886,1.9,1.889q2.023,0,4.045,0h5.595l2.452,0c1.311,0,1.873-.571,1.878-1.9V478.3c0-.5,0-1.01,0-1.516A3.258,3.258,0,0,0-845.648,473.428Zm1.461,4.634v0c0,.171-.008.342-.01.514h-12.055c0-.172-.006-.342-.009-.511a14.584,14.584,0,0,1,.028-1.7,1.279,1.279,0,0,1,1.288-1.068c3.182-.02,6.37-.019,9.475,0a1.217,1.217,0,0,1,1.253,1.03A13.728,13.728,0,0,1-844.187,478.062Z" transform="translate(858.163 -457.94)" fill="#8aa7ae"/>
      <path id="Path_810" data-name="Path 810" d="M-837.656,514.388h0a.885.885,0,0,0-.692.117.936.936,0,0,0-.384.624c-.055.3-.17.392-.517.392-2.894-.006-5.755,0-8.173,0-.368,0-.451-.112-.488-.347a.874.874,0,0,0-1.028-.795.917.917,0,0,0-.78,1.083,2.059,2.059,0,0,0,2.123,1.894c.565.006,1.136.007,1.7.007l1.313,0,1.243,0h1.328c.924,0,1.972.005,2.987-.007a2.086,2.086,0,0,0,2.1-1.851A.931.931,0,0,0-837.656,514.388Z" transform="translate(851.273 -491.362)" fill="#8aa7ae"/>
      <path id="Path_811" data-name="Path 811" d="M-764.378,442.538a1.109,1.109,0,0,0,.748.35,1.12,1.12,0,0,0,.768-.372c.475-.463.95-.941,1.409-1.4l.358-.36a1.122,1.122,0,0,0,.383-.795.888.888,0,0,0-.3-.64.856.856,0,0,0-.63-.267,1.1,1.1,0,0,0-.755.393c-.306.326-.609.655-.929,1l-.24.261-.04-.036c-.131-.121-.231-.212-.334-.3a.884.884,0,0,0-1.286.013.9.9,0,0,0,0,1.292C-764.939,442-764.622,442.309-764.378,442.538Z" transform="translate(784.834 -431.425)" fill="#8aa7ae"/>
    </g>
    <rect id="Rectangle_602" data-name="Rectangle 602" width="34" height="26" transform="translate(937 684)" fill="none"/>
  </g>
</svg>
