<svg id="Layer_1" data-name="Layer 1" xmlns="http://www.w3.org/2000/svg" width="34" height="26.01" viewBox="0 0 34 26.01"><defs><style>.cls-1{fill:#fff;}.cls-2{fill:none;}</style></defs><g id="Group_1657" data-name="Group 1657"><g id="Group_1620" data-name="Group 1620"><path id="Path_807" data-name="Path 807" class="cls-1" d="M7.71,11.83a.51.51,0,0,1,0,.3,2,2,0,0,0-.79,1.76,1.54,1.54,0,0,0,.36,1.18.77.77,0,0,0,.52.2h.09c1-.08.91-.91.89-1.35a.61.61,0,0,1,0-.19h3.54a1.7,1.7,0,0,1,.71,0,1.67,1.67,0,0,1,.19.61v.08a1.16,1.16,0,0,0,.76.78,1,1,0,0,0,.93-.48,2.21,2.21,0,0,0-.56-2.49c-.18-.13-.2-.2-.14-.48A13,13,0,0,1,15.64,8.3l.1-.19a5.54,5.54,0,0,0-.1-5.46A5.26,5.26,0,0,0,11.13,0,5.31,5.31,0,0,0,6.19,2.8a5.23,5.23,0,0,0,.09,5.51A10.92,10.92,0,0,1,7.71,11.83ZM9.49,2.15A3.72,3.72,0,0,1,11,1.83a3.41,3.41,0,0,1,1.38.29,3.7,3.7,0,0,1,2.06,2.2,3.5,3.5,0,0,1-.27,2.88,15.67,15.67,0,0,0-1.83,4.51.42.42,0,0,1-.18.11,5.48,5.48,0,0,1-.81,0h-.89a1.63,1.63,0,0,1-.82-.09c-.1-.07-.15-.36-.19-.59a2.94,2.94,0,0,0-.16-.65c-.43-1-.9-2.11-1.43-3.16a3.71,3.71,0,0,1-.37-3,3.74,3.74,0,0,1,2-2.23Z" transform="translate(0 0.01)"/><path id="Path_808" data-name="Path 808" class="cls-1" d="M31,9.11a2.12,2.12,0,0,0,.15-1.67A2,2,0,0,0,30,6.23a.8.8,0,0,1-.52-.72A2,2,0,0,0,27.31,3.7a1.54,1.54,0,0,0-.31,0,.69.69,0,0,1-.74-.25,2,2,0,0,0-2.81-.29,2.65,2.65,0,0,0-.29.29.64.64,0,0,1-.69.24A2.06,2.06,0,0,0,20,5.23a2.38,2.38,0,0,0-.06.37.66.66,0,0,1-.42.6A2.16,2.16,0,0,0,18.3,7.47a2.14,2.14,0,0,0,.17,1.66.77.77,0,0,1,0,.85,2.13,2.13,0,0,0-.17,1.69,2.18,2.18,0,0,0,1.17,1.25.61.61,0,0,1,.43.59A2.2,2.2,0,0,0,20.74,15a2.12,2.12,0,0,0,1.66.34.73.73,0,0,1,.79.27,2.15,2.15,0,0,0,1.46.69h.09A1.84,1.84,0,0,0,26,15.84c.48-.44.82-.65,1.24-.46h.12a2.06,2.06,0,0,0,2.18-1.86A.68.68,0,0,1,30,12.9a2,2,0,0,0,1.15-2.58A1.87,1.87,0,0,0,31,10,.8.8,0,0,1,31,9.11ZM20.15,8.37a.46.46,0,0,1-.09-.32c0-.07.11-.14.24-.2a2.18,2.18,0,0,0,1.43-2,.44.44,0,0,1,.11-.29.37.37,0,0,1,.29,0,2.22,2.22,0,0,0,2.35-.77.31.31,0,0,1,.23-.14.46.46,0,0,1,.28.17,2.15,2.15,0,0,0,2.25.75.56.56,0,0,1,.36,0,.43.43,0,0,1,.12.32,2.16,2.16,0,0,0,1.4,1.92.39.39,0,0,1,.25.2.44.44,0,0,1-.09.31,2.09,2.09,0,0,0,0,2.37.47.47,0,0,1,.09.33.44.44,0,0,1-.28.22,2.09,2.09,0,0,0-1.36,1.88c0,.31-.15.38-.34.4a2.22,2.22,0,0,0-2.5.8.27.27,0,0,1-.16.1.39.39,0,0,1-.26-.17,2.22,2.22,0,0,0-1.7-.84,2.37,2.37,0,0,0-.65.09.3.3,0,0,1-.26,0,.33.33,0,0,1-.11-.25,2.22,2.22,0,0,0-1.45-2,.38.38,0,0,1-.23-.2.42.42,0,0,1,.09-.32,2.09,2.09,0,0,0,0-2.37Z" transform="translate(0 0.01)"/><path id="Path_809" data-name="Path 809" class="cls-1" d="M15.52,15.49H6.37A3.27,3.27,0,0,0,3,18.66v2a1.65,1.65,0,0,0,1.37,1.89,1.57,1.57,0,0,0,.53,0H17c1.31,0,1.87-.57,1.87-1.9V18.84a3.24,3.24,0,0,0-3.13-3.35h-.22ZM17,20.12h0v.52H4.91v-.51a16.07,16.07,0,0,1,0-1.7A1.27,1.27,0,0,1,6.2,17.36h9.47a1.22,1.22,0,0,1,1.26,1A17.26,17.26,0,0,1,17,20.12Z" transform="translate(0 0.01)"/><path id="Path_810" data-name="Path 810" class="cls-1" d="M16.62,23h0a.91.91,0,0,0-.7.11,1,1,0,0,0-.38.63c0,.3-.17.39-.52.39H6.85c-.37,0-.45-.11-.49-.35a.86.86,0,0,0-.92-.8h-.1a.9.9,0,0,0-.79,1h0V24a2.06,2.06,0,0,0,2.13,2h8.58a2.08,2.08,0,0,0,2.1-1.85A.94.94,0,0,0,16.7,23h-.08Z" transform="translate(0 0.01)"/><path id="Path_811" data-name="Path 811" class="cls-1" d="M23.46,11.11a1.06,1.06,0,0,0,.74.35,1.07,1.07,0,0,0,.77-.37c.48-.46,1-.94,1.41-1.4l.36-.36a1.11,1.11,0,0,0,.38-.79,1,1,0,0,0-.93-.91,1.07,1.07,0,0,0-.75.39l-.93,1-.24.26h0a3.17,3.17,0,0,0-.34-.3.87.87,0,0,0-1.24,0h0a.89.89,0,0,0,0,1.26h0A9,9,0,0,0,23.46,11.11Z" transform="translate(0 0.01)"/></g><rect id="Rectangle_602" data-name="Rectangle 602" class="cls-2" y="0.01" width="34" height="26"/></g></svg>