<svg id="Layer_1" data-name="Layer 1" xmlns="http://www.w3.org/2000/svg" viewBox="0 0 34 26"><defs><style>.cls-1{fill:#fff;}.cls-2{fill:none;}</style></defs><g id="Group_1657" data-name="Group 1657"><g id="Group_1620" data-name="Group 1620"><path id="Path_807" data-name="Path 807" class="cls-1" d="M7.71,11.83a.52.52,0,0,1,0,.3,2,2,0,0,0-.79,1.76,1.54,1.54,0,0,0,.36,1.18.77.77,0,0,0,.52.2h.09c1-.08.91-.91.89-1.35a.41.41,0,0,1,0-.19s.05,0,.24,0h3.3a1.88,1.88,0,0,1,.71,0,1.67,1.67,0,0,1,.19.61l0,.08a1.16,1.16,0,0,0,.76.78,1,1,0,0,0,.93-.48,2.21,2.21,0,0,0-.56-2.49c-.18-.13-.2-.2-.14-.48A12.93,12.93,0,0,1,15.64,8.3l.1-.19a5.54,5.54,0,0,0-.1-5.46A5.27,5.27,0,0,0,11.13,0a5.31,5.31,0,0,0-4.94,2.8,5.23,5.23,0,0,0,.09,5.51A11,11,0,0,1,7.71,11.83ZM9.49,2.15A3.61,3.61,0,0,1,11,1.83a3.41,3.41,0,0,1,1.38.29,3.7,3.7,0,0,1,2.06,2.2,3.5,3.5,0,0,1-.27,2.88,15.67,15.67,0,0,0-1.83,4.51.42.42,0,0,1-.18.11,5.48,5.48,0,0,1-.81,0H10.7v0h-.24a1.64,1.64,0,0,1-.82-.09c-.1-.07-.15-.36-.19-.59a2.94,2.94,0,0,0-.16-.65c-.43-1-.9-2.11-1.43-3.16a3.7,3.7,0,0,1-.37-3,3.74,3.74,0,0,1,2-2.23Z"/><path id="Path_808" data-name="Path 808" class="cls-1" d="M31,9.11a2.12,2.12,0,0,0,.15-1.67A2.05,2.05,0,0,0,30,6.23a.79.79,0,0,1-.52-.72A2,2,0,0,0,27,3.75a.69.69,0,0,1-.74-.25,2,2,0,0,0-3.1,0,.64.64,0,0,1-.69.24A2.06,2.06,0,0,0,19.91,5.6a.66.66,0,0,1-.42.6A2.19,2.19,0,0,0,18.3,7.47a2.14,2.14,0,0,0,.17,1.66.79.79,0,0,1,0,.85,2.12,2.12,0,0,0-.17,1.69,2.18,2.18,0,0,0,1.17,1.25.62.62,0,0,1,.43.59A2.19,2.19,0,0,0,20.74,15a2.12,2.12,0,0,0,1.66.34.73.73,0,0,1,.79.27,2.15,2.15,0,0,0,1.46.69h.09A1.84,1.84,0,0,0,26,15.84c.48-.44.82-.65,1.24-.46l.06,0h.06a2.06,2.06,0,0,0,2.18-1.86A.68.68,0,0,1,30,12.9,2,2,0,0,0,31,10,.82.82,0,0,1,31,9.11ZM20.15,8.37a.45.45,0,0,1-.09-.32c0-.07.11-.14.24-.2a2.2,2.2,0,0,0,1.43-2,.44.44,0,0,1,.11-.29.41.41,0,0,1,.29,0,2.22,2.22,0,0,0,2.35-.77.31.31,0,0,1,.23-.14.46.46,0,0,1,.28.17,2.15,2.15,0,0,0,2.25.75.5.5,0,0,1,.36,0,.43.43,0,0,1,.12.32,2.16,2.16,0,0,0,1.4,1.92.38.38,0,0,1,.25.2.44.44,0,0,1-.09.31,2.09,2.09,0,0,0,0,2.37.47.47,0,0,1,.09.33.44.44,0,0,1-.28.22,2.08,2.08,0,0,0-1.36,1.88c0,.31-.15.38-.34.4a2.22,2.22,0,0,0-2.5.8.25.25,0,0,1-.16.1.41.41,0,0,1-.26-.17,2.2,2.2,0,0,0-1.7-.84,2.37,2.37,0,0,0-.65.09.3.3,0,0,1-.26,0,.33.33,0,0,1-.11-.25,2.22,2.22,0,0,0-1.45-2,.38.38,0,0,1-.23-.2.42.42,0,0,1,.09-.32,2.08,2.08,0,0,0,0-2.37Z"/><path id="Path_809" data-name="Path 809" class="cls-1" d="M15.52,15.49c-3.08,0-6.15,0-9.15,0A3.27,3.27,0,0,0,3,18.68v.11c0,.49,0,1,0,1.45v.38a1.65,1.65,0,0,0,1.9,1.89H17c1.31,0,1.87-.57,1.87-1.9V18.84a3.24,3.24,0,0,0-3.15-3.35ZM17,20.12h0c0,.17,0,.34,0,.52H4.91c0-.18,0-.35,0-.51a16,16,0,0,1,0-1.7,1.27,1.27,0,0,1,1.29-1.07c3.18,0,6.37,0,9.47,0a1.22,1.22,0,0,1,1.26,1A16.6,16.6,0,0,1,17,20.12Z"/><path id="Path_810" data-name="Path 810" class="cls-1" d="M16.62,23h0a.91.91,0,0,0-.7.11,1,1,0,0,0-.38.63c0,.3-.17.39-.52.39-2.89,0-5.75,0-8.17,0-.37,0-.45-.11-.49-.35a.86.86,0,0,0-.93-.8H5.34a.9.9,0,0,0-.79,1v.05A2.06,2.06,0,0,0,6.68,26h5.58c.93,0,2,0,3,0a2.08,2.08,0,0,0,2.1-1.85A.93.93,0,0,0,16.64,23Z"/><path id="Path_811" data-name="Path 811" class="cls-1" d="M23.46,11.11a1.06,1.06,0,0,0,.74.35,1.07,1.07,0,0,0,.77-.37c.48-.46,1-.94,1.41-1.4l.36-.36a1.11,1.11,0,0,0,.38-.79.87.87,0,0,0-.3-.64.83.83,0,0,0-.63-.27,1.07,1.07,0,0,0-.75.39l-.93,1-.24.26,0,0a4.07,4.07,0,0,0-.34-.3.88.88,0,0,0-1.25,0l0,0a.89.89,0,0,0,0,1.27l0,0A9.93,9.93,0,0,0,23.46,11.11Z"/></g><rect id="Rectangle_602" data-name="Rectangle 602" class="cls-2" width="34" height="26"/></g></svg>