<svg id="Group_171" data-name="Group 171" xmlns="http://www.w3.org/2000/svg" width="30" height="28" viewBox="0 0 30 28">
  <rect id="Rectangle_48" data-name="Rectangle 48" width="30" height="28" rx="4" fill="#090909"/>
  <g id="Group_137" data-name="Group 137" transform="translate(8 8)">
    <g id="_003-twitter" data-name="003-twitter" transform="translate(0.222 0.309)">
      <g id="Group_132" data-name="Group 132" transform="translate(0)">
        <path id="Path_12" data-name="Path 12" d="M13.272,49.277a5.673,5.673,0,0,1-1.568.43,2.706,2.706,0,0,0,1.2-1.5,5.437,5.437,0,0,1-1.725.659,2.721,2.721,0,0,0-4.706,1.861,2.8,2.8,0,0,0,.063.62A7.7,7.7,0,0,1,.924,48.5a2.722,2.722,0,0,0,.836,3.636A2.687,2.687,0,0,1,.531,51.8v.03A2.733,2.733,0,0,0,2.711,54.5,2.716,2.716,0,0,1,2,54.59a2.406,2.406,0,0,1-.515-.046,2.747,2.747,0,0,0,2.542,1.9A5.467,5.467,0,0,1,.651,57.6,5.1,5.1,0,0,1,0,57.562a7.66,7.66,0,0,0,4.174,1.221,7.691,7.691,0,0,0,7.744-7.742c0-.12,0-.236-.01-.352A5.428,5.428,0,0,0,13.272,49.277Z" transform="translate(0 -48)" fill="#fff"/>
      </g>
    </g>
    <rect id="Rectangle_68" data-name="Rectangle 68" width="14" height="12" fill="none"/>
  </g>
</svg>
