<svg xmlns="http://www.w3.org/2000/svg" width="46" height="46" viewBox="0 0 46 46">
  <g id="Group_1634" data-name="Group 1634" transform="translate(-710.721 -895.819)">
    <g id="Group_1633" data-name="Group 1633" transform="translate(711.03 897.175)">
      <path id="Path_814" data-name="Path 814" d="M-1682.637,519.606h7.035c.858,0,1.716,0,2.574,0,1.515.007,1.747.186,2.156,1.64a5.751,5.751,0,0,0,4.666,4.406,5.9,5.9,0,0,0,6.913-4.272c.479-1.656.63-1.77,2.364-1.775q4.53-.012,9.06-.027a1.556,1.556,0,0,0,.321-.111c-.031-.287-.041-.611-.1-.924-.386-1.917-.79-3.83-1.176-5.747a3.765,3.765,0,0,0-3.963-3.3c-2.54-.017-5.08,0-7.62-.013-1.165,0-1.868-.549-1.889-1.437s.65-1.448,1.845-1.452c2.608-.009,5.218-.03,7.826.006a6.542,6.542,0,0,1,6.557,5.323c1.114,5.164,2.2,10.335,3.2,15.521a6.642,6.642,0,0,1-6.69,8.066q-15.446.033-30.892,0a6.707,6.707,0,0,1-6.777-8.358q1.518-7.41,3.052-14.816a6.716,6.716,0,0,1,6.966-5.743c2.505-.016,5.011-.01,7.517,0,1.188,0,1.879.55,1.868,1.437s-.718,1.452-1.876,1.456c-2.437.009-4.875-.009-7.312.006-2.606.016-3.827,1.045-4.34,3.584-.366,1.816-.755,3.627-1.128,5.441C-1682.541,518.82-1682.568,519.122-1682.637,519.606Zm17.509,13c5.145,0,10.29.015,15.435-.006a3.785,3.785,0,0,0,3.931-4.774c-.293-1.514-.655-3.014-.933-4.531-.106-.579-.331-.81-.937-.8-2.744.025-5.488-.011-8.231.04a1.308,1.308,0,0,0-.957.631c-1.633,3.515-4.36,5.488-8.224,5.494s-6.608-1.938-8.252-5.453a1.314,1.314,0,0,0-.938-.66c-2.743-.052-5.488-.017-8.231-.041-.584,0-.855.175-.962.775-.255,1.416-.586,2.818-.877,4.227-.643,3.113.967,5.1,4.154,5.1Q-1672.639,532.612-1665.128,532.6Z" transform="translate(1687.396 -490.987)" fill="#20b1e4"/>
      <path id="Path_815" data-name="Path 815" d="M-1615.482,436.385v1.085q0,6.591,0,13.181c0,1.224-.478,1.879-1.381,1.911-.955.033-1.5-.648-1.506-1.9q-.008-6.539,0-13.078v-1.2l-.327-.226a7.4,7.4,0,0,1-.608.9q-2.346,2.6-4.723,5.168c-.787.847-1.576.951-2.251.358s-.657-1.443.093-2.269q4.05-4.458,8.136-8.884a1.376,1.376,0,0,1,2.236-.014q4.124,4.46,8.2,8.961a1.454,1.454,0,0,1,.053,2.194,1.44,1.44,0,0,1-2.178-.26c-1.617-1.73-3.208-3.485-4.8-5.241a8.348,8.348,0,0,1-.627-.9Z" transform="translate(1639.254 -430.86)" fill="#20b1e4"/>
    </g>
    <rect id="Rectangle_606" data-name="Rectangle 606" width="46" height="46" transform="translate(710.721 895.819)" fill="none"/>
  </g>
</svg>
